<?xml version="1.0" encoding="UTF-8" standalone="no"?>
<svg id="svg3371" xmlns:rdf="http://www.w3.org/1999/02/22-rdf-syntax-ns#" xmlns="http://www.w3.org/2000/svg" height="350" viewBox="0 0 350 350" width="350" version="1.1" xmlns:cc="http://creativecommons.org/ns#" xmlns:dc="http://purl.org/dc/elements/1.1/">
 <metadata id="metadata3377">
  <rdf:RDF>
   <cc:Work rdf:about="">
    <dc:format>image/svg+xml</dc:format>
    <dc:type rdf:resource="http://purl.org/dc/dcmitype/StillImage"/>
    <dc:title/>
   </cc:Work>
  </rdf:RDF>
 </metadata>
 <path id="path3397" d="m0.82155 174.18v-175h175 175v175 175h-175-175v-175z" fill="#f00000"/>
 <path id="path3395" d="m0.82155 174.18v-175h175 175v175 175h-175-175v-175zm81.98 113.88c5.9787-6.0623 7.0202-7.6335 7.0202-10.59 0-2.6551-0.73557-4.0976-3.1266-6.1316-1.7196-1.4629-4.8344-4.3473-6.9216-6.4098-5.1703-5.109-7.7111-4.9286-14.086 1-2.8093 2.6125-6.1783 5.742-7.4866 6.9546-4.0772 3.7786-3.148 6.4295 5.1696 14.747 5.2584 5.2584 8.286 7.5484 9.9798 7.5484 1.69 0 4.572-2.1706 9.4516-7.1184zm111.47-0.43001c8.3176-8.3176 9.2468-10.968 5.1696-14.747-1.3083-1.2125-4.6773-4.342-7.4866-6.9546-3.2967-3.0657-6.0038-4.75-7.6346-4.75s-4.3379 1.6843-7.6346 4.75c-2.8093 2.6125-6.1783 5.742-7.4866 6.9546-4.0772 3.7786-3.148 6.4295 5.1696 14.747 5.2099 5.2099 8.2929 7.5484 9.9516 7.5484s4.7417-2.3385 9.9516-7.5484zm-111.47-110.57c9.5026-9.6355 9.5026-11.128 0-20.763-4.8796-4.9478-7.7616-7.1184-9.4516-7.1184-3.3737 0-17.528 14.132-17.528 17.5 0 3.3683 14.154 17.5 17.528 17.5 1.69 0 4.572-2.1706 9.4516-7.1184zm111.47-0.43001c5.2099-5.2099 7.5484-8.2929 7.5484-9.9516s-2.3385-4.7417-7.5484-9.9516-8.2929-7.5484-9.9516-7.5484c-3.3467 0-17.5 14.153-17.5 17.5 0 1.6587 2.3385 4.7417 7.5484 9.9516s8.2929 7.5484 9.9516 7.5484 4.7417-2.3385 9.9516-7.5484z" fill="#d00000"/>
 <path id="path3393" d="m0.82155 174.18v-175h175 175v175 175h-175-175v-175zm79.308 121.41c5.9149-2.0154 9.2199-5.9425 10.748-12.771 0.94275-4.2126 0.93973-6.4883-0.01387-10.463-1.532-6.3859-4.7804-9.6763-11.709-11.86-4.6385-1.4622-6.0953-1.5286-10.125-0.46183-7.5438 1.9968-11.737 5.3169-13.592 10.762-2.0061 5.8876-2.0163 7.8503-0.07021 13.562 1.8497 5.4285 5.592 9.2536 10.985 11.228 5.241 1.9186 8.1591 1.9197 13.778 0.005zm110.8 0.0505c6.0182-2.1233 9.6123-5.9048 11.597-12.202 1.4413-4.5724 1.5037-6.0248 0.43179-10.052-1.758-6.6051-3.341-8.637-8.8373-11.343-6.363-3.133-13.241-3.133-19.604 0-5.4963 2.7062-7.0792 4.738-8.8373 11.343-2.417 9.081 2.7648 18.939 11.669 22.198 5.2148 1.9091 8.2912 1.9216 13.58 0.0555zm-110.8-111.05c5.9149-2.0154 9.2199-5.9425 10.748-12.771 0.94819-4.237 0.93979-6.4881-0.03946-10.57-1.6961-7.0701-4.9445-10.629-11.622-12.734-4.6818-1.4758-6.1658-1.5483-10.188-0.49758-8.0711 2.1086-12.261 6.2986-14.37 14.37-2.3784 9.1036 2.8051 18.945 11.692 22.198 5.241 1.9186 8.1591 1.9197 13.778 0.005zm110.8 0.0505c6.0182-2.1233 9.6123-5.9048 11.597-12.202 1.4327-4.545 1.5008-6.0489 0.45489-10.052-2.1086-8.0711-6.2986-12.261-14.37-14.37-4.0032-1.0459-5.5071-0.9778-10.052 0.45489-6.2968 1.9849-10.078 5.579-12.202 11.597-1.9292 5.4678-1.9282 7.6112 0.006 13.288 1.8497 5.4285 5.592 9.2536 10.985 11.228 5.2148 1.9091 8.2912 1.9216 13.58 0.0555z" fill="#af0000"/>
 <path id="path3391" d="m0.82155 174.18v-175h175 175v175 175h-175-175v-175zm80.612 123.36c7.5959-1.908 8.5491-3.0083 10.954-12.644 1.4564-5.8346 1.5178-7.6079 0.43959-12.689-2.0777-9.7904-3.6646-11.542-12.303-13.578-7.072-1.6672-7.8024-1.669-14.328-0.0345-3.7817 0.94727-7.8498 2.6334-9.0402 3.747s-2.953 4.9381-3.9168 8.4988c-1.6633 6.1449-1.6648 6.8459-0.02888 13.785 2.0447 8.6732 3.9918 10.835 11.61 12.889 7.2637 1.9582 8.9094 1.9608 16.612 0.0259zm110.74 0.0579c8.2794-2.13 10.171-4.1363 12.262-13.004 1.6432-6.9699 1.6426-7.661-0.0122-13.629-2.3383-8.4334-4.3292-10.315-13.1-12.383-6.8511-1.6151-7.6344-1.6144-14.129 0.0124-3.7817 0.94727-7.8498 2.6334-9.0402 3.747s-2.953 4.9381-3.9168 8.4988c-1.6633 6.1449-1.6648 6.8459-0.0289 13.785 2.0447 8.6732 3.9918 10.835 11.61 12.889 7.2369 1.951 9.0613 1.9604 16.356 0.0838zm-110.99-110.97c3.3794-0.8524 6.8943-2.4309 7.8109-3.5077 0.91659-1.0768 2.448-5.2728 3.4032-9.3244 1.6439-6.9729 1.645-7.7338 0.02023-14.242-2.5025-10.025-3.3134-10.904-11.925-12.935-7.0297-1.6573-7.7685-1.6586-14.289-0.0253-8.9827 2.25-10.866 4.1457-12.965 13.049-1.6078 6.8201-1.6063 7.6164 0.02768 14.284 2.0559 8.3891 4.052 10.562 11.562 12.587 7.2176 1.9458 9.0452 1.9586 16.356 0.11467zm111-0.0309c8.1629-2.1 10.111-4.1224 12.206-12.671 1.634-6.6676 1.6355-7.4639 0.0277-14.284-2.0989-8.9031-3.9824-10.799-12.965-13.049-6.4946-1.6268-7.278-1.6275-14.129-0.0124-8.9363 2.1067-10.827 3.9823-13.079 12.972-1.6268 6.4946-1.6275 7.278-0.0124 14.129 2.03 8.6108 3.9908 10.78 11.596 12.831 7.2369 1.951 9.0613 1.9604 16.356 0.0838z" fill="#8f0000"/>
 <path id="path3389" d="m0.82155 174.18v-175h175 175v175 175h-175-175v-175zm84.463 124.81c5.1209-1.6908 7.9578-5.9415 9.5315-14.282 1.9216-10.184-0.57952-21.482-5.6361-25.459-3.9023-3.0695-14.969-4.6013-22.516-3.1165-3.4745 0.68357-7.5999 1.9062-9.1677 2.7168-5.6287 2.9107-8.8377 15.382-6.6673 25.912 1.5072 7.3115 3.3384 10.995 6.2525 12.576 6.8849 3.7363 19.63 4.4831 28.203 1.6525zm110.91 0.13496c7.8235-2.2357 11.045-8.649 11.023-21.944-0.015-9.0833-2.7143-16.076-7.0761-18.332-1.5677-0.8107-5.7076-2.0361-9.1998-2.7232-7.0112-1.3794-16.779-0.20932-22.364 2.679-5.7167 2.9562-8.94 15.346-6.7528 25.956 1.5072 7.3115 3.3384 10.995 6.2525 12.576 6.7219 3.6479 18.898 4.422 28.117 1.7875zm-110.92-111.13c5.2126-1.7211 8.045-6.0742 9.5948-14.746 1.9175-10.73-1.0336-23.075-6.329-26.475-4.2958-2.7581-14.312-4.0102-21.493-2.687-11.832 2.18-14.155 4.504-16.335 16.335-1.9143 10.389 1.2107 23.126 6.3598 25.92 6.8849 3.7363 19.63 4.4831 28.203 1.6525zm106.74 1.0698c10.474-2.217 12.644-4.5177 14.854-15.753 1.3699-6.963 0.21328-16.771-2.6249-22.26-2.9579-5.7199-15.234-8.984-26.194-6.9646-11.832 2.18-14.155 4.504-16.335 16.335-0.94988 5.1552-0.94052 7.8836 0.0442 12.889 2.1721 11.041 3.9991 13.126 13.555 15.476 6.4762 1.5921 10.198 1.654 16.701 0.27766z" fill="#6f0000"/>
 <path id="path3387" d="m0.82155 174.18v-175h175 175v175 175h-175-175v-175zm83.485 127.56c9.1328-2.1481 11.897-6.4629 13.173-20.561 1.1801-13.042-2.9134-23.404-10.195-25.809-9.304-3.072-24.343-2.3734-31.788 1.4766-9.6786 5.005-9.9938 37.29-0.41479 42.488 6.7174 3.6454 19.484 4.6959 29.226 2.4047zm113.89-0.58336c8.191-2.4123 11.082-8.6753 11.067-23.977-0.0107-11.162-2.3634-17.884-7.1072-20.307-9.1307-4.6637-26.545-4.6637-35.675 0-9.6662 4.9372-9.9723 37.27-0.40201 42.464 6.8256 3.7041 22.673 4.6028 32.117 1.8213zm-110.92-111.14c5.1397-1.7414 7.9635-6.006 9.5523-14.426 2.1246-11.26-0.09331-24.648-4.8756-29.43-6.582-6.582-31.942-6.275-38.686 0.46829-4.3673 4.3673-6.549 18.305-4.4975 28.733 2.1544 10.95 3.9432 12.995 13.543 15.477 5.941 1.5365 19.301 1.0967 24.963-0.82178zm110.91 0.13458c8.1043-2.3868 11.054-8.6511 11.054-23.477 0-19.998-4.9339-24.931-24.931-24.931-14.838 0-21.133 2.9681-23.444 11.054-1.9413 6.7931-2.39 16.004-1.0993 22.565 2.1544 10.95 3.9432 12.995 13.543 15.477 5.6284 1.4556 18.841 1.0907 24.878-0.6872z" fill="#4f0000"/>
 <path id="path3385" d="m0.82155 174.18v-175h175 175v175 175h-175-175v-175zm90.164 128.33c1.7199-1.0072 3.9762-2.9706 5.0139-4.363 2.6131-3.5062 4.1793-14.781 3.509-25.26-0.97673-15.271-5.0624-20.01-18.322-21.253-9.7283-0.91161-21.905 0.17504-26.3 2.3469-1.8895 0.93387-4.2502 2.8229-5.2461 4.1979-2.7715 3.8267-4.1224 13.303-3.471 24.347 1.1463 19.437 6.0132 22.986 30.421 22.185 8.6243-0.28293 12.002-0.79938 14.395-2.201zm111.52 0.00089c2.0268-1.0077 4.5162-2.9715 5.532-4.3639 2.5807-3.5377 4.1346-14.853 3.469-25.26-0.61563-9.6254-2.5949-14.918-6.6982-17.91-3.6568-2.667-14.067-4.0775-25.336-3.4327-10.725 0.6137-15.757 2.3864-18.834 6.6353-2.7715 3.8267-4.1224 13.303-3.471 24.347 1.146 19.433 6.0147 22.985 30.403 22.186 8.325-0.27289 12.208-0.84518 14.935-2.201zm-111.52-111c1.7199-1.0072 3.9694-2.9615 4.9988-4.3428 2.7-3.6229 4.1216-13.995 3.4727-25.336-0.93539-16.347-4.7044-20.926-18.271-22.198-9.7283-0.91161-21.905 0.17504-26.3 2.3469-1.8895 0.93387-4.2597 2.8281-5.2671 4.2094-2.667 3.6568-4.0775 14.067-3.4327 25.336 1.1117 19.428 5.9876 22.986 30.404 22.185 8.6243-0.28293 12.002-0.79938 14.395-2.201zm111.52 0.00089c2.0268-1.0077 4.5094-2.9624 5.5168-4.3437 2.667-3.6568 4.0775-14.067 3.4327-25.336-0.6139-10.729-2.3823-15.745-6.6467-18.855-3.6568-2.667-14.067-4.0775-25.336-3.4327-10.729 0.6139-15.745 2.3823-18.855 6.6467-2.667 3.6568-4.0775 14.067-3.4327 25.336 1.1115 19.424 5.9891 22.986 30.386 22.186 8.325-0.27289 12.208-0.84518 14.935-2.201z" fill="#2f0000"/>
 <path id="path3383" d="m0.82155 174.18v-175h175 175v175 175h-175-175v-175zm93.723 131.35c6.6954-3.2711 7.7438-6.9644 7.7616-27.345 0.018-20.516-0.99513-24.005-7.9847-27.5-3.5472-1.7736-5.9812-1.9983-21.5-1.9846-20.528 0.018-24.024 1.0331-27.5 7.9846-1.779 3.5581-1.994 5.9333-1.9454 21.5 0.05997 19.223 0.97204 23.333 5.8929 26.558 3.7715 2.4712 12.133 3.3671 27.776 2.976 10.801-0.27004 14.527-0.73608 17.5-2.1884zm112.07-0.0315c6.6212-3.2361 7.6779-6.9864 7.6957-27.314 0.0136-15.519-0.21107-17.953-1.9846-21.5-3.5044-7.0089-6.9251-7.9843-28-7.9843s-24.496 0.97541-28 7.9843c-1.779 3.5581-1.994 5.9333-1.9454 21.5 0.06 19.223 0.97204 23.333 5.8929 26.558 3.8176 2.5014 12.194 3.3724 28.341 2.9467 11.208-0.29547 15.089-0.76784 18-2.1905zm-112.08-110.98c6.7524-3.2989 7.7613-6.9184 7.7613-27.845 0-21.075-0.97541-24.496-7.9843-28-3.5472-1.7736-5.9812-1.9983-21.5-1.9846-20.533 0.018-24.03 1.0339-27.492 7.9846-1.7729 3.5599-1.9878 5.9806-1.9527 22 0.04326 19.764 0.92234 23.801 5.8924 27.058 3.7715 2.4712 12.133 3.3671 27.776 2.976 10.801-0.27004 14.527-0.73608 17.5-2.1884zm112.07-0.0315c6.6781-3.2639 7.6954-6.9406 7.6954-27.814 0-15.971-0.22454-18.451-1.9921-22-3.4903-7.0081-6.9128-7.9843-27.992-7.9843s-24.502 0.9762-27.992 7.9843c-1.7729 3.5599-1.9878 5.9806-1.9527 22 0.0433 19.764 0.92233 23.801 5.8924 27.058 3.8176 2.5014 12.194 3.3724 28.341 2.9467 11.208-0.29547 15.089-0.76784 18-2.1905z"/>
</svg>
